<svg xmlns="http://www.w3.org/2000/svg" width="400" height="175.764" viewBox="0 0 400 NaN" fill-rule="evenodd" xmlns:v="https://vecta.io/nano"><path d="M.176 49.143v49.143h12.22 12.219V83.78l-.175-14.505c-.113 0-.176-1.462-.176-4.034l-.176-4.142s-.176-1.586-.176-3.972c0-3.272-.04-3.879-.264-3.965s-.263-.72-.263-4.214l-.176-4.113s-.176-1.436-.176-3.956-.064-3.956-.176-3.956-.176-.938-.176-2.461.067-2.462.176-2.462c.097 0 .176.24.176.533 0 .312.11.575.264.634.162.063.263.33.263.698 0 .328.08.597.176.597s.176.221.176.492.065.567.145.659.246.523.369.958.295.929.382 1.097a1.7 1.7 0 0 1 .159.665c0 .198.119.405.264.461.162.062.264.329.264.697 0 .328.079.597.175.597s.176.237.176.527.079.528.176.528.176.277.176.615.079.616.176.616.175.239.175.533c0 .311.11.575.264.634s.264.32.264.61c0 .279.079.508.176.508s.176.277.176.616.079.615.175.615.176.277.176.615.079.616.176.616.176.192.176.427a1.12 1.12 0 0 0 .264.691c.145.145.263.467.263.715s.079.453.176.453.176.277.176.615.079.615.176.615.176.233.176.517.079.566.175.626.176.257.176.438.119.447.264.592.264.507.264.804.079.54.176.54.175.193.175.429.08.478.176.538.176.337.176.615.079.556.176.616.176.301.176.537c0 .265.101.43.263.43.185 0 .264.185.264.615 0 .339.079.615.176.615s.176.277.176.616.079.615.176.615.175.238.175.528.08.527.176.527.176.277.176.616c0 .429.08.615.264.615s.264.186.264.615c0 .339.079.616.175.616s.176.232.176.517.079.566.176.626.176.341.176.625.079.517.176.517.176.24.176.533c0 .312.109.575.263.635.163.062.264.329.264.697 0 .328.079.597.176.597s.176.237.176.527.079.528.175.528.176.277.176.615.079.616.176.616.176.123.176.274c0 .461.558 2.011.723 2.011.086 0 .156.277.156.616s.079.615.176.615.176.193.176.429.079.478.176.538.175.337.175.616.079.555.176.615.176.302.176.538c0 .264.101.429.264.429.184 0 .263.186.263.615 0 .339.08.616.176.616s.176.277.176.615.079.616.176.616.176.232.176.517.079.566.176.625.175.305.175.544.119.48.264.536c.163.062.264.329.264.697 0 .329.079.597.176.597s.176.277.176.615.079.616.175.616.176.237.176.527.079.528.176.528.176.192.176.427.119.545.264.69.263.507.263.804.079.54.176.54.176.238.176.528.079.527.176.527.176.233.176.517.079.566.175.626.176.292.176.516.119.507.264.627.264.431.264.69.065.546.145.637.246.523.369.959.295.928.382 1.096.159.507.159.753.118.493.263.549.264.29.264.522.079.42.176.42.176.243.176.54c0 1.077-.282 1.043 8.691 1.043h8.188v-.528c0-.29.079-.527.176-.527s.176-.277.176-.616.079-.615.175-.615.176-.277.176-.615c0-.43.08-.616.264-.616.175 0 .264-.174.264-.517 0-.284.079-.566.176-.626s.175-.341.175-.625.079-.517.176-.517.176-.277.176-.616.079-.615.176-.615.176-.277.176-.616c0-.429.079-.615.263-.615.163 0 .264-.165.264-.429 0-.236.079-.478.176-.538s.176-.337.176-.615.079-.556.176-.616.175-.302.175-.538.08-.429.176-.429.176-.243.176-.54.119-.659.264-.804a.98.98 0 0 0 .264-.592c0-.181.079-.378.175-.437s.176-.342.176-.626.079-.517.176-.517.176-.277.176-.616.079-.615.176-.615.175-.204.175-.452a1.16 1.16 0 0 1 .264-.716c.145-.145.264-.451.264-.68s.079-.466.176-.526.176-.341.176-.625.079-.518.175-.518.176-.232.176-.517.079-.566.176-.625.176-.333.176-.607c0-.281.115-.543.264-.6s.263-.323.263-.634c0-.293.079-.533.176-.533s.176-.277.176-.615.079-.616.176-.616.176-.237.176-.527.079-.528.175-.528.176-.268.176-.596c0-.368.101-.636.264-.698.154-.059.264-.323.264-.634 0-.293.079-.533.176-.533s.175-.277.175-.616.08-.615.176-.615.176-.193.176-.429.079-.478.176-.538.176-.292.176-.516.11-.499.244-.611c.232-.192.286-.36.56-1.73.063-.315.185-.572.271-.572s.156-.237.156-.527.079-.528.175-.528.176-.243.176-.54.119-.658.264-.803.264-.412.264-.593.079-.378.175-.437.176-.342.176-.626.079-.517.176-.517.176-.277.176-.616.079-.615.176-.615.176-.277.176-.615.079-.616.175-.616.176-.229.176-.508c0-.29.114-.553.264-.61s.264-.323.264-.634c0-.294.079-.533.176-.533s.175-.277.175-.616.079-.615.176-.615.176-.238.176-.528.079-.527.176-.527.176-.277.176-.615c0-.43.079-.616.263-.616s.264-.185.264-.615c0-.339.079-.616.176-.616s.176-.277.176-.615.079-.615.176-.615.175-.238.175-.528.08-.527.176-.527.176-.229.176-.509c0-.29.113-.552.264-.61s.264-.321.264-.624c0-.287.079-.571.175-.631s.176-.302.176-.538.079-.429.176-.429.176-.233.176-.517.079-.566.176-.626.175-.307.175-.55.119-.561.264-.706a1.12 1.12 0 0 0 .264-.69c0-.235.079-.427.176-.427s.176-.233.176-.518.079-.566.175-.625.176-.342.176-.626.079-.517.176-.517.176-.269.176-.597c0-.368.101-.635.264-.698.145-.055.263-.296.263-.535s.079-.484.176-.544.176-.341.176-.626.079-.517.176-.517.176-.277.176-.615.079-.615.175-.615.176-.269.176-.597c0-.368.101-.635.264-.698.145-.055.264-.297.264-.536s.079-.483.176-.543c.114-.071.175.844.175 2.617 0 1.627-.07 2.769-.175 2.833s-.176 1.609-.176 4.04c0 2.989-.053 3.949-.22 4.004-.227.076-.379 3.253-.581 12.132-.054 2.388-.159 4-.26 4s-.17 1.531-.17 3.946c0 2.441-.067 3.987-.176 4.054-.115.071-.176 5.042-.176 14.34v14.232h12.22 12.22V49.143 0H91.152C73.719 0 74.725-.063 74.725 1.032c0 .291-.079.579-.176.638s-.175.373-.175.695c0 .359-.103.626-.264.688-.154.059-.264.322-.264.634 0 .293-.079.533-.176.533s-.175.232-.175.517-.08.566-.176.626-.176.341-.176.625-.079.517-.176.517-.176.244-.176.541-.118.658-.264.803-.263.452-.263.681-.079.465-.176.525-.176.337-.176.615-.079.556-.176.616-.176.336-.176.615-.079.556-.175.615-.176.373-.176.695c0 .359-.102.626-.264.688-.154.059-.264.322-.264.634 0 .293-.079.533-.176.533s-.175.233-.175.517-.079.566-.176.626-.176.341-.176.626-.079.517-.176.517-.176.277-.176.615-.079.615-.175.615-.176.269-.176.597c0 .345-.103.636-.243.69-.134.051-.29.356-.347.678l-.216 1.244c-.061.363-.182.66-.268.66s-.157.276-.157.615-.079.615-.176.615-.176.277-.176.616c0 .429-.079.615-.263.615s-.264.186-.264.615c0 .339-.079.616-.176.616s-.176.233-.176.517-.079.566-.176.626-.175.341-.175.625-.08.518-.176.518-.176.27-.176.6-.083.629-.185.663c-.186.062-.473.971-.642 2.033-.05.315-.161.572-.247.572s-.157.277-.157.615-.079.615-.176.615-.176.269-.176.597c0 .368-.101.635-.263.698-.154.059-.264.322-.264.634 0 .293-.079.533-.176.533s-.176.233-.176.517-.079.566-.175.626-.176.341-.176.626-.079.517-.176.517-.176.243-.176.54-.119.658-.264.804-.263.49-.263.768-.08.553-.176.613-.176.341-.176.626-.079.517-.176.517-.176.277-.176.615-.079.616-.176.616-.175.268-.175.596c0 .368-.101.636-.264.698-.154.059-.264.323-.264.634 0 .293-.079.533-.176.533s-.175.233-.175.517-.08.566-.176.626-.176.341-.176.626-.079.517-.176.517-.176.243-.176.54-.118.659-.264.804-.263.49-.263.768-.079.553-.176.613-.176.337-.176.616-.079.555-.176.615-.176.341-.176.626-.079.517-.175.517-.176.277-.176.615-.079.616-.176.616-.176.276-.176.615c0 .43-.079.615-.264.615s-.263.186-.263.616c0 .338-.079.615-.176.615s-.176.233-.176.517-.079.566-.176.626-.176.337-.176.615-.079.556-.175.616-.176.331-.176.604-.119.594-.264.714-.264.487-.264.813-.079.594-.176.594-.175.237-.175.527-.08.528-.176.528-.176.277-.176.615-.079.616-.176.616-.176.277-.176.615c0 .43-.079.615-.263.615s-.264.186-.264.616c0 .338-.079.615-.176.615s-.176.242-.176.538c0 .314-.073.493-.176.429-.096-.059-.175-.331-.175-.604s-.119-.594-.264-.714-.264-.447-.264-.725-.079-.506-.176-.506-.176-.277-.176-.616-.079-.615-.175-.615-.176-.277-.176-.615-.079-.616-.176-.616-.176-.24-.176-.533c0-.311-.109-.575-.264-.634-.15-.058-.263-.32-.263-.61 0-.28-.079-.508-.176-.508s-.176-.277-.176-.616-.079-.615-.176-.615-.176-.277-.176-.616-.07-.615-.156-.615-.198-.257-.248-.571c-.168-1.063-.455-1.972-.641-2.034-.102-.034-.185-.332-.185-.662s-.08-.601-.176-.601-.176-.277-.176-.615-.079-.616-.176-.616-.176-.233-.176-.517-.079-.566-.176-.626-.175-.304-.175-.543-.119-.48-.264-.536c-.163-.062-.264-.33-.264-.698 0-.328-.079-.596-.176-.596s-.175-.277-.175-.616-.08-.615-.176-.615-.176-.272-.176-.605-.079-.654-.176-.714-.176-.296-.176-.525-.118-.535-.264-.68-.263-.507-.263-.804-.079-.54-.176-.54-.176-.277-.176-.616-.079-.615-.176-.615-.176-.233-.176-.517-.079-.566-.175-.626-.176-.296-.176-.525-.119-.535-.264-.681-.264-.467-.264-.715-.079-.453-.175-.453-.176-.276-.176-.615-.079-.615-.176-.615-.176-.277-.176-.616-.079-.615-.176-.615-.176-.228-.176-.506-.118-.604-.263-.725-.264-.486-.264-.813-.079-.593-.176-.593-.176-.277-.176-.616-.079-.615-.176-.615-.175-.233-.175-.517-.079-.566-.176-.626-.176-.333-.176-.607c0-.281-.115-.542-.264-.599-.154-.06-.263-.323-.263-.635 0-.293-.08-.533-.176-.533s-.176-.277-.176-.615-.079-.615-.176-.615-.176-.277-.176-.616-.079-.615-.176-.615-.175-.228-.175-.506-.119-.605-.264-.725-.264-.486-.264-.813-.079-.594-.176-.594-.176-.276-.176-.615-.079-.615-.175-.615-.176-.233-.176-.517-.079-.566-.176-.626-.176-.337-.176-.616-.079-.555-.176-.615-.176-.304-.176-.543-.118-.481-.263-.536c-.163-.063-.264-.33-.264-.698 0-.328-.079-.597-.176-.597s-.176-.277-.176-.615-.079-.615-.175-.615-.176-.273-.176-.605-.079-.654-.176-.714-.176-.292-.176-.516-.119-.507-.264-.627-.263-.442-.263-.714-.08-.545-.176-.605-.176-.336-.176-.615-.079-.556-.176-.615-.176-.337-.176-.616-.079-.555-.176-.615-.175-.304-.175-.543-.119-.481-.264-.536c-.163-.063-.264-.33-.264-.698 0-.328-.079-.597-.176-.597s-.175-.277-.175-.615-.08-.616-.176-.616-.176-.232-.176-.517-.079-.566-.176-.625-.176-.332-.176-.605-.118-.594-.263-.714-.264-.486-.264-.813-.079-.594-.176-.594-.176-.232-.176-.517-.079-.566-.176-.625-.176-.326-.176-.591c0-.944.73-.904-16.386-.904H.176v49.143m140.308-25.055c0 .101-.557.176-1.319.176s-1.319.074-1.319.176c0 .096-.386.175-.857.175-.548 0-.937.096-1.077.264-.126.152-.509.264-.901.264-.375 0-.681.079-.681.176s-.277.176-.616.176-.615.079-.615.175-.277.176-.615.176-.616.079-.616.176-.193.176-.429.176-.478.079-.538.176-.265.175-.455.175-.393.119-.448.264-.291.264-.522.264-.421.079-.421.176-.158.176-.352.176-.351.079-.351.175-.198.176-.44.176-.439.079-.439.176-.159.176-.352.176-.352.117-.352.264-.143.263-.318.263-.489.159-.696.352-.471.352-.585.352-.39.197-.614.439-.512.44-.641.44-.347.158-.486.351-.326.352-.415.352-.344.198-.568.44-.456.439-.516.439-.209.099-.331.22-.433.377-.691.569-.468.41-.468.483-.277.428-.616.786-.615.718-.615.798-.277.422-.616.76-.615.732-.615.874-.079.257-.176.257-.177.099-.18.22-.158.418-.347.66-.346.578-.348.747-.072.307-.156.307-.286.376-.45.836-.372.972-.463 1.14-.166.539-.166.825-.079.568-.176.628-.175.46-.175.89-.079.78-.176.78c-.108 0-.176.821-.176 2.11v2.11h11.604 11.605v-.781c0-.429.079-.829.176-.889s.175-.343.175-.629c0-.626.385-1.921.571-1.921.073 0 .133-.104.133-.232s.35-.583.777-1.011c1.036-1.037 1.27-1.218 1.579-1.218.143 0 .309-.079.369-.176s.262-.176.45-.176.341-.079.341-.176.528-.175 1.231-.175 1.231-.076 1.231-.176.277-.176.615-.176.616.079.616.176.498.176 1.142.176 1.143.076 1.143.175.277.176.616.176.615.079.615.176.107.176.237.176c.333 0 2.576 2.214 2.576 2.542 0 .149.079.271.176.271s.176.158.176.352.079.351.176.351.176.233.176.517.079.566.175.626.176.455.176.877c0 .449.11.878.264 1.032.212.212.264.803.264 3.002v2.738h-7.375c-4.726 0-7.413.063-7.483.175-.059.097-.732.176-1.494.176s-1.435.079-1.495.176-.533.176-1.052.176c-.605 0-1.039.095-1.208.264-.157.156-.586.263-1.057.263-.437 0-.843.079-.902.176s-.377.176-.704.176-.643.079-.703.176-.381.176-.714.176-.605.079-.605.175-.192.176-.427.176a1.12 1.12 0 0 0-.69.264 1.03 1.03 0 0 1-.628.264c-.201 0-.364.079-.364.176s-.238.175-.528.175-.527.08-.527.176-.198.176-.44.176-.44.079-.44.176-.158.176-.351.176-.352.117-.352.263c0 .165-.166.264-.439.264-.242 0-.44.079-.44.176s-.158.176-.352.176-.351.079-.351.176-.119.175-.264.175-.264.08-.264.176-.158.176-.351.176-.352.085-.352.188c0 .263-.455.691-.735.691-.301.001-1.199.773-1.199 1.032 0 .109-.082.199-.182.199-.236 0-1.401 1.164-1.401 1.401 0 .1-.088.181-.196.181-.304 0-1.386 1.262-1.386 1.617 0 .175-.104.317-.231.317-.246 0-1 1.272-1 1.687 0 .136-.079.248-.176.248s-.175.158-.175.351-.079.352-.176.352-.176.198-.176.439c0 .258-.101.44-.244.44-.228 0-.332.309-.575 1.714-.054.315-.169.572-.255.572s-.157.356-.157.791-.079.791-.176.791-.175.58-.175 1.388c0 1.071-.061 1.411-.264 1.489-.217.083-.264.535-.264 2.547 0 1.959.053 2.489.264 2.664.188.156.264.568.264 1.428 0 .689.075 1.209.175 1.209s.176.312.176.693.079.742.176.802.176.297.176.527.079.468.176.528.176.302.176.538c0 .264.101.429.263.429.147 0 .264.156.264.351s.079.352.176.352.176.198.176.44.079.439.175.439.176.159.176.352.07.352.156.352.279.257.429.571.436.688.635.83.363.351.363.464.336.58.747 1.038c1.101 1.227 1.422 1.542 1.968 1.932a9.31 9.31 0 0 1 .903.747c.225.218.492.396.594.396s.183.079.183.175.108.176.24.176.429.18.659.4a4.65 4.65 0 0 0 .904.645c.265.135.483.311.483.392s.198.146.44.146.439.079.439.175.158.176.352.176.351.118.351.264c0 .164.167.264.44.264.242 0 .44.079.44.176s.158.175.351.175.352.08.352.176.277.176.615.176.616.079.616.176.229.176.508.176c.29 0 .552.113.61.263.067.174.341.264.8.264.384 0 .747.079.807.176s.539.176 1.065.176.957.079.957.176c0 .113 1.784.175 5.001.175 3.144 0 5.04-.065 5.109-.175.06-.097.455-.176.879-.176s.819-.079.879-.176.383-.176.719-.176c.381 0 .649-.099.712-.264.058-.15.32-.263.61-.263.28 0 .508-.079.508-.176s.198-.176.44-.176.44-.079.44-.176.158-.176.351-.176.352-.079.352-.175.198-.176.439-.176c.274 0 .44-.1.44-.264 0-.146.156-.264.352-.264s.351-.079.351-.176.144-.175.319-.175.472-.141.659-.313a16.95 16.95 0 0 1 1.044-.836c.387-.287 1.117-.937 1.623-1.445 1.019-1.024 1.103-1.068 1.103-.593 0 .182.118.429.263.549s.264.486.264.813.079.594.176.594.176.277.176.615.079.616.176.616.175.131.175.292.134.596.298.967l.297.675h11.747 11.746v-1.061c0-.78-.069-1.087-.263-1.161-.146-.056-.264-.251-.264-.434s-.079-.333-.176-.333-.176-.193-.176-.429-.079-.479-.176-.538-.176-.297-.176-.528-.079-.468-.175-.527-.176-.384-.176-.719c0-.381-.1-.649-.264-.712-.185-.071-.264-.359-.264-.962 0-.473-.079-.86-.175-.86s-.176-.524-.176-1.22c0-.672-.079-1.27-.176-1.329-.105-.065-.176-1.2-.176-2.814s-.071-2.748-.176-2.813c-.115-.071-.176-6.449-.176-18.56l-.263-18.451c-.205 0-.264-.234-.264-1.055 0-.586-.078-1.055-.176-1.055s-.176-.316-.176-.703-.079-.703-.176-.703-.175-.277-.175-.616-.079-.615-.176-.615-.176-.132-.176-.293c0-.395-.56-1.641-.737-1.641-.078 0-.142-.198-.142-.44s-.064-.439-.143-.439-.252-.277-.385-.616-.305-.615-.384-.615-.143-.108-.143-.239-.198-.388-.44-.569-.439-.45-.439-.596c-.001-.328-.758-1.233-1.032-1.233-.109 0-.199-.082-.199-.182 0-.236-1.164-1.401-1.401-1.401-.1 0-.181-.082-.181-.182 0-.184-1.141-1.4-1.313-1.4-.052 0-.24-.139-.419-.308-.602-.57-1.084-.923-1.259-.923-.096 0-.174-.079-.174-.176s-.13-.176-.289-.176-.376-.108-.483-.241c-.221-.274-2.144-1.341-2.416-1.341-.098 0-.297-.119-.442-.264a.98.98 0 0 0-.592-.264c-.181 0-.378-.079-.438-.175s-.262-.176-.449-.176-.342-.079-.342-.176-.277-.176-.615-.176-.616-.079-.616-.176-.232-.175-.517-.175-.566-.08-.625-.176-.412-.176-.783-.176c-.415 0-.71-.095-.769-.246-.095-.247-.827-.379-3.152-.566-.652-.053-1.186-.169-1.186-.258 0-.095-2.674-.161-6.506-.161-4.22 0-6.505.062-6.505.176m82.813-.016c0 .088-.455.203-1.011.255-1.894.178-2.506.317-2.506.571 0 .163-.206.245-.615.245-.339 0-.616.079-.616.176s-.276.176-.615.176-.615.079-.615.175-.159.176-.352.176-.352.079-.352.176-.197.176-.439.176-.44.079-.44.176-.158.175-.351.175-.352.118-.352.264c0 .164-.166.264-.44.264-.241 0-.439.079-.439.176s-.099.176-.22.176-.45.198-.731.439-.566.44-.633.44-.371.237-.674.527-.603.528-.665.528-.297.197-.521.439-.458.44-.519.44c-.213 0-1.635 1.567-1.749 1.926-.242.764-.618.401-.618-.597 0-.526-.079-1.006-.176-1.066s-.175-1.056-.175-2.384c0-1.399-.068-2.275-.176-2.275-.097 0-.176-.159-.176-.353 0-.35-.089-.352-11.033-.308l-11.033.046v36.483 36.484l11.824.045 11.824.045V72.539l.176-25.858c.097-.059.176-.216.176-.348 0-.267 2.365-2.729 2.622-2.729.248 0 1.244-.597 1.245-.747.001-.072.199-.132.441-.132s.439-.079.439-.176.233-.175.517-.175.566-.079.626-.176.653-.176 1.319-.176 1.259-.079 1.318-.176c.142-.228 1.266-.228 1.407 0 .06.097.777.176 1.593.176.872 0 1.484.072 1.484.176 0 .097.277.176.615.176s.616.079.616.175.148.176.33.176a.82.82 0 0 1 .549.264c.12.145.296.264.39.264s.394.237.665.527.546.528.61.528c.203 0 .62.491.624.734.003.128.159.431.348.672s.346.657.348.923c.002.311.098.484.268.484.195 0 .263.205.263.791 0 .435.079.791.176.791.117 0 .176 8.381.176 24.792v24.791h11.78 11.78v-25.46l-.163-25.626c-.091-.092-.206-.879-.256-1.749-.156-2.675-.3-3.622-.565-3.724-.169-.065-.246-.391-.246-1.043 0-.521-.079-.948-.176-.948s-.176-.277-.176-.615-.079-.616-.176-.616-.176-.276-.176-.615-.079-.615-.175-.615-.176-.24-.176-.533c0-.312-.11-.575-.264-.634-.145-.056-.264-.251-.264-.435s-.079-.332-.176-.332-.175-.198-.175-.44-.08-.439-.176-.439-.176-.159-.176-.352-.079-.352-.176-.352-.177-.138-.179-.307-.199-.494-.439-.722-.437-.525-.437-.66-.079-.245-.176-.245-.176-.119-.176-.264-.079-.263-.175-.263-.176-.108-.176-.239-.198-.388-.44-.57-.439-.393-.439-.47c0-.166-1.169-1.359-1.332-1.359-.062 0-.268-.197-.458-.439s-.459-.44-.597-.44-.251-.079-.251-.176-.118-.175-.263-.175-.264-.08-.264-.176-.158-.176-.352-.176-.351-.104-.351-.231-.277-.34-.616-.472-.615-.306-.615-.385-.198-.143-.44-.143-.439-.079-.439-.176-.238-.175-.528-.175-.527-.08-.527-.176-.277-.176-.616-.176c-.429 0-.615-.08-.615-.264s-.184-.264-.605-.264c-.333 0-.654-.079-.714-.175s-.495-.176-.967-.176-.907-.079-.967-.176c-.14-.226-10.461-.242-10.461-.016m58.022.016c0 .097-.431.176-.957.176s-1.006.079-1.065.176-.423.175-.807.175c-.459 0-.734.091-.8.264-.057.149-.319.264-.6.264-.274 0-.547.079-.606.176s-.298.176-.528.176-.468.079-.527.175-.302.176-.538.176-.429.079-.429.176-.159.176-.352.176-.352.079-.352.176-.16.175-.357.175-.403.119-.458.264-.251.264-.434.264-.333.079-.333.176-.143.176-.319.176-.488.158-.696.351-.462.352-.566.352-.234.119-.29.264-.211.263-.346.263-.245.079-.245.176-.11.176-.244.176c-.203 0-.777.495-2.8 2.413-.98.929-2.758 2.968-2.758 3.162 0 .279-.415.755-.658.755-.085 0-.264.277-.397.615s-.306.615-.384.615-.143.159-.143.352-.079.352-.176.352-.176.084-.176.188-.099.299-.22.434c-.544.607-.659.786-.659 1.03 0 .144-.079.31-.176.37s-.176.262-.176.45-.079.341-.176.341-.175.124-.175.276-.119.395-.264.54a1.12 1.12 0 0 0-.264.691c0 .235-.079.427-.176.427s-.176.198-.176.44-.079.439-.175.439-.176.237-.176.528-.079.527-.176.527-.176.269-.176.597c0 .368-.101.635-.264.697-.152.059-.263.322-.263.624 0 .288-.079.572-.176.631s-.176.421-.176.802-.079.693-.176.693-.176.356-.176.791-.079.791-.175.791-.176.473-.176 1.068c0 .714-.087 1.155-.264 1.331-.19.19-.264.653-.264 1.658 0 .812-.073 1.394-.176 1.394-.114 0-.175 2.312-.175 6.583 0 4.199.063 6.622.175 6.692.097.059.176.731.176 1.492 0 .996.074 1.458.264 1.647.171.171.264.606.264 1.233 0 .533.079 1.018.176 1.078s.175.46.175.89.08.781.176.781.176.311.176.692.079.742.176.802.176.344.176.631c0 .303.111.566.263.624.163.063.264.33.264.698 0 .328.079.597.176.597s.176.237.176.527.079.527.176.527.175.198.175.44.08.44.176.44.176.148.176.33a.82.82 0 0 0 .264.549c.145.12.264.407.264.637s.074.418.164.418.265.277.387.615.286.615.363.615.141.159.141.352.117.352.263.352c.164 0 .264.166.264.439 0 .242.059.44.132.44s.321.356.552.791.528.791.659.791.239.159.239.352.08.352.176.352.176.101.176.224.158.339.352.479.351.348.351.464c0 .275 4.185 4.459 4.459 4.459.116 0 .325.158.464.352s.355.351.479.351.225.079.225.176.158.176.351.176.352.104.352.231.277.339.615.472.616.306.616.385.158.143.351.143.352.079.352.175.198.176.44.176c.273 0 .439.1.439.264 0 .147.157.264.352.264s.352.079.352.176.197.175.439.175.44.08.44.176.232.176.517.176.566.079.626.176.332.176.606.176c.281 0 .543.115.6.263.067.175.342.264.81.264.39 0 .709.079.709.176s.469.176 1.055.176 1.055.078 1.055.176c0 .113 1.729.175 4.835.175s4.835-.062 4.835-.175c0-.097.391-.176.869-.176s.917-.079.977-.176.381-.176.714-.176c.42 0 .605-.08.605-.264s.185-.263.615-.263c.339 0 .616-.079.616-.176s.158-.176.351-.176.352-.079.352-.176.198-.176.439-.176.44-.079.44-.175.158-.176.352-.176.351-.117.351-.264c0-.157.162-.264.401-.264.22 0 .515-.158.654-.351s.395-.352.567-.352.312-.079.312-.176.119-.176.264-.176.264-.084.264-.188c0-.228.441-.691.659-.691.086 0 .487-.283.892-.629l.735-.629v2.201c0 1.278-.074 2.247-.176 2.31s-.176.539-.176 1.065-.079.957-.176.957-.176.277-.176.615-.079.616-.176.616-.175.237-.175.527-.074.528-.163.528c-.177 0-.716.984-.716 1.307 0 .108-.159.312-.352.451a.92.92 0 0 0-.352.654c0 .221-.082.401-.181.401-.218 0-1.401 1.155-1.401 1.368 0 .082-.277.257-.616.39s-.615.297-.615.365-.277.254-.615.415-.616.367-.616.459-.237.168-.527.168-.528.079-.528.176-.193.175-.429.175-.478.079-.538.176-.416.176-.791.176-.731.079-.791.176-.819.176-1.686.176c-1.24 0-1.6.056-1.679.263-.067.173-.341.264-.798.264-.386 0-.815-.118-.961-.264-.194-.194-.669-.263-1.799-.263-.844 0-1.609-.072-1.701-.159s-.523-.202-.959-.256c-1.469-.18-2.109-.326-2.109-.484 0-.086-.164-.156-.365-.156a1.03 1.03 0 0 1-.628-.264.98.98 0 0 0-.592-.264c-.181 0-.378-.079-.437-.176s-.263-.175-.45-.175-.342-.065-.342-.143-.273-.251-.608-.382-.648-.344-.697-.472-.171-.234-.27-.234c-.168 0-.624-.33-1.157-.835-.127-.121-.356-.22-.508-.22s-.276-.085-.276-.189c0-.209-.434-.69-.623-.69-.163 0-1.311-1.263-1.311-1.441 0-.078-.119-.142-.264-.142s-.264-.07-.264-.155c0-.341-.78-.356-1.092-.021-.173.186-.314.384-.314.44 0 .115-.246.425-.835 1.055-.218.233-.396.544-.396.692s-.277.554-.615.902-.616.728-.616.844-.158.324-.351.463-.352.359-.352.487-.198.417-.44.641-.439.519-.439.656-.158.362-.352.502-.351.318-.351.398-.081.24-.18.356c-.842.998-1.051 1.303-1.051 1.537 0 .148-.159.383-.352.522s-.352.338-.352.442-.276.482-.615.84-.615.771-.615.916-.079.264-.176.264-.176.118-.176.263-.119.264-.264.264-.265.138-.266.308-.048.479-.105.689c-.104.391 2.446 3.223 2.903 3.223.106 0 .194.079.194.176a.18.18 0 0 0 .184.175c.101 0 .358.18.571.399a4.04 4.04 0 0 0 .871.645c.266.135.483.312.483.393s.1.146.222.146.435.198.696.439.635.44.833.44.359.079.359.176.159.176.352.176.352.079.352.175.197.176.439.176c.274 0 .44.1.44.264 0 .147.156.264.351.264s.352.079.352.176.198.175.44.175.439.08.439.176.158.176.352.176.351.079.351.176.277.176.616.176c.43 0 .615.079.615.263 0 .145.139.265.308.267.36.003 1.565.405 1.74.58.067.066.424.12.795.12s.674.08.674.176.267.176.594.176.692.119.812.264c.134.161.519.264.989.264.423 0 .77.079.77.175s.494.176 1.132.176c.623 0 1.181.079 1.241.176.069.112 2.434.176 6.516.176 4.154 0 6.407-.062 6.407-.176 0-.101.554-.176 1.309-.176.719 0 1.357-.079 1.417-.176s.454-.175.876-.175c.449 0 .879-.11 1.032-.264.149-.148.578-.264.98-.264.394 0 .716-.079.716-.176s.356-.176.791-.176.791-.079.791-.175.233-.176.517-.176.566-.079.626-.176.342-.176.626-.176c.342 0 .517-.089.517-.264 0-.164.166-.263.442-.263a2.09 2.09 0 0 0 .791-.176l.699-.352c.192-.096.469-.176.615-.176s.266-.079.266-.175.161-.176.357-.176.403-.119.459-.264.251-.264.434-.264.333-.079.333-.176.197-.175.439-.175.44-.079.44-.176.158-.176.351-.176.352-.079.352-.176.121-.176.269-.176.315-.118.371-.263.211-.264.346-.264.245-.079.245-.176.141-.176.313-.176.427-.158.566-.351.357-.352.484-.352.276-.119.332-.264.193-.264.307-.264.32-.158.459-.351.318-.352.396-.352c.2 0 2.593-2.31 2.593-2.503 0-.2.453-.662.649-.662.081 0 .304-.211.496-.468s.449-.569.57-.691.219-.311.219-.419.198-.38.44-.604.44-.501.44-.614.158-.377.351-.585.352-.512.352-.677a.46.46 0 0 1 .264-.401c.145-.056.263-.222.263-.37s.079-.27.176-.27.176-.197.176-.439.079-.44.176-.44.176-.158.176-.351.079-.352.175-.352.176-.277.176-.615c0-.43.08-.616.264-.616.162 0 .264-.165.264-.429 0-.236.079-.478.176-.538s.175-.297.175-.527.08-.468.176-.528.176-.42.176-.801.079-.693.176-.693.176-.435.176-.967.079-.967.176-.967.175-.521.175-1.21c0-.86.076-1.272.264-1.428.233-.193.264-4.563.264-37.384V25.143h-10.638c-10.52 0-10.637.004-10.637.352 0 .193-.079.351-.176.351-.103 0-.176.62-.176 1.507 0 1.105-.07 1.578-.263 1.771a1.12 1.12 0 0 0-.264.691c0 .563-.092.541-.78-.189-.319-.338-.65-.615-.736-.615s-.537-.356-1.005-.791-.961-.791-1.098-.791-.249-.08-.249-.176-.085-.176-.188-.176-.447-.198-.764-.44-.707-.439-.867-.439-.291-.079-.291-.176-.154-.176-.341-.176-.39-.079-.45-.176-.342-.175-.626-.175-.517-.08-.517-.176-.229-.176-.509-.176c-.29 0-.552-.114-.61-.264s-.321-.264-.623-.264c-.288 0-.572-.079-.632-.175s-.539-.176-1.065-.176-.957-.079-.957-.176c0-.113-1.846-.176-5.187-.176s-5.186.063-5.186.176m77.538 0c0 .101-.553.176-1.308.176-.72 0-1.357.079-1.417.176s-.455.175-.877.175c-.449 0-.878.11-1.032.264-.145.145-.542.264-.881.264s-.667.079-.727.176-.381.176-.713.176-.605.079-.605.175-.238.176-.528.176-.527.079-.527.176-.139.177-.308.178c-.491.005-1.696.47-1.767.683-.035.106-.216.194-.401.194s-.337.079-.337.176-.198.176-.44.176-.44.079-.44.175-.158.176-.351.176-.352.079-.352.176-.161.176-.357.176-.403.119-.458.264-.234.263-.396.263-.408.159-.547.352-.375.354-.522.357c-.348.007-.885.416-.885.673 0 .111-.158.201-.351.201s-.352.079-.352.176-.09.175-.199.175-.327.143-.484.317-.6.55-.986.835c-.723.534-1.496 1.239-1.496 1.365 0 .039-.277.365-.615.724s-.616.737-.616.84-.277.424-.615.713-.615.674-.615.855-.079.329-.176.329-.176.081-.176.18c0 .213-.909 1.641-1.099 1.725-.072.032-.132.245-.132.473s-.079.464-.176.524-.175.301-.175.537-.08.43-.176.43-.176.267-.176.593-.119.693-.264.813c-.16.133-.264.518-.264.978 0 .418-.079.809-.175.868s-.176.969-.176 2.121v2.011h11.604 11.605v-.716c0-.402.115-.831.263-.979s.264-.57.264-.944.079-.73.176-.789.176-.263.176-.45.064-.342.143-.342.251-.277.384-.615.31-.615.393-.615.341-.178.574-.396c.747-.699.947-.835 1.224-.835.149 0 .271-.079.271-.176s.198-.176.439-.176.44-.079.44-.176.495-.175 1.132-.175c.623 0 1.182-.08 1.241-.176s.381-.176.714-.176.605.079.605.176.498.176 1.143.176 1.143.076 1.143.175.277.176.615.176.616.079.616.176.072.176.161.176c.365 0 2.407 1.967 2.568 2.475.059.186.181.338.272.338s.163.158.163.352.08.351.176.351.176.277.176.616.079.615.176.615.176.391.176.869.079.917.176.977c.105.065.175 1.233.175 2.912v2.803h-7.384c-4.416 0-7.385.065-7.385.162 0 .09-.653.206-1.45.258-2.856.187-3.67.309-3.767.563-.064.165-.377.247-.945.247-.468 0-.899.079-.959.176s-.376.176-.703.176-.644.079-.703.176-.377.176-.704.176-.643.079-.703.175-.256.176-.437.176-.448.119-.593.264-.427.264-.628.264-.364.079-.364.176-.233.175-.517.175-.566.08-.626.176-.262.176-.45.176-.341.079-.341.176-.161.176-.357.176-.403.118-.458.263-.251.264-.434.264-.333.079-.333.176-.144.176-.319.176-.488.158-.696.351-.499.352-.648.352-.271.119-.271.264-.119.264-.264.264-.264.079-.264.175-.125.176-.278.176-.782.515-1.399 1.143-1.203 1.143-1.304 1.143-.184.078-.184.173-.356.544-.791.998-.791.913-.791 1.019-.158.308-.352.447-.351.395-.351.567-.08.312-.176.312-.176.198-.176.44c0 .273-.1.44-.264.44-.145 0-.264.153-.264.341s-.079.39-.175.45-.176.262-.176.45-.079.341-.176.341-.176.193-.176.429-.079.478-.176.538-.175.381-.175.714-.08.605-.176.605-.176.347-.176.772c0 .524-.085.805-.264.874-.202.077-.264.41-.264 1.425 0 .766-.074 1.324-.175 1.324-.11 0-.176.964-.176 2.539 0 1.503.071 2.584.176 2.648.096.06.175.66.175 1.335 0 .927.065 1.25.264 1.327.171.065.264.338.264.775 0 .371.079.723.176.783s.176.341.176.626.079.517.175.517.176.198.176.439.079.44.176.44.176.158.176.351.079.352.176.352.175.161.175.357.119.403.264.459.264.251.264.434.079.333.176.333.176.118.176.263.079.264.175.264.176.124.176.276c0 .293.404.779.648.779.08 0 .242.219.361.486.206.466 2.204 2.679 2.419 2.679.126 0 .452.265 1.204.98.313.297.823.652 1.133.79s.565.333.565.435.277.286.615.408.616.297.616.387.158.165.351.165.352.079.352.175.198.176.44.176c.273 0 .439.1.439.264 0 .147.156.264.352.264s.351.079.351.176.198.175.44.175.44.08.44.176.232.176.517.176.566.079.625.176.333.176.607.176c.281 0 .543.115.6.263.067.175.342.264.81.264.39 0 .709.079.709.176s.435.176.967.176.967.079.967.176c0 .113 1.817.175 5.099.175 2.919 0 5.099-.067 5.099-.158s.375-.203.835-.257c1.9-.223 2.329-.328 2.329-.57 0-.163.207-.245.616-.245.338 0 .615-.079.615-.176s.198-.176.44-.176.439-.079.439-.176.158-.176.352-.176.352-.079.352-.175.16-.176.357-.176.402-.119.458-.264.251-.264.434-.264.333-.079.333-.176.158-.175.352-.175.351-.079.351-.176.079-.176.175-.176c.158 0 .744-.445 1.331-1.011.125-.121.275-.22.334-.22.181 0 1.325-1.209 1.325-1.401 0-.099.119-.181.264-.181s.264-.079.264-.176.079-.176.175-.176.176.193.176.429.079.478.176.538.176.381.176.714c0 .42.08.605.264.605s.263.185.263.615c0 .339.079.616.176.616s.176.159.176.354a1.66 1.66 0 0 0 .163.659 4.17 4.17 0 0 1 .258.613c.09.289.806.308 11.793.308h11.698v-1.143c0-.645-.077-1.143-.176-1.143s-.176-.158-.176-.352-.079-.351-.175-.351-.176-.193-.176-.429-.079-.479-.176-.538-.176-.305-.176-.544-.119-.48-.264-.536c-.172-.066-.263-.339-.263-.785 0-.377-.079-.685-.176-.685s-.176-.351-.176-.781-.079-.829-.176-.889-.176-.653-.176-1.319-.079-1.259-.175-1.318c-.105-.065-.176-1.197-.176-2.805 0-2.235-.045-2.714-.264-2.798-.232-.089-.264-2.315-.264-18.568l-.176-18.467c-.096 0-.175-.43-.175-.956s-.08-1.006-.176-1.066-.176-.42-.176-.801-.079-.693-.176-.693-.176-.24-.176-.533c0-.312-.109-.575-.263-.635s-.264-.319-.264-.609c0-.28-.079-.509-.176-.509s-.176-.198-.176-.44-.079-.439-.176-.439-.175-.109-.175-.242c0-.34-.876-1.868-1.07-1.868-.089 0-.161-.141-.161-.313s-.159-.427-.352-.566-.352-.384-.352-.544-.276-.527-.615-.816-.615-.58-.615-.646c0-.15-.824-.983-.972-.983-.141 0-.611-.47-.611-.611 0-.132-.826-.972-.956-.972-.051 0-.377-.277-.726-.615s-.728-.615-.843-.615-.324-.159-.464-.352-.386-.352-.547-.352-.34-.118-.395-.263-.203-.266-.327-.268-.423-.159-.665-.348-.578-.345-.747-.348-.308-.083-.308-.179-.148-.176-.33-.176a.82.82 0 0 1-.549-.264c-.12-.145-.407-.264-.637-.264s-.418-.079-.418-.175-.158-.176-.351-.176-.352-.079-.352-.176-.277-.176-.616-.176-.615-.079-.615-.176-.277-.175-.615-.175-.616-.08-.616-.176-.356-.176-.791-.176c-.586 0-.791-.069-.791-.264s-.214-.264-.869-.264c-.478 0-.917-.079-.977-.175s-.619-.176-1.241-.176c-.638 0-1.133-.077-1.133-.176 0-.114-2.286-.176-6.505-.176s-6.506.062-6.506.176m-65.758 17.758c0 .103.586.176 1.406.176s1.407.073 1.407.176c0 .097.317.176.703.176s.704.079.704.175.197.176.439.176.44.074.44.163c0 .167.977.716 1.275.716.091 0 .388.238.659.528s.555.527.631.527c.215 0 .951.742.951.959 0 .107.159.309.352.448.347.25.352.455.352 15.566 0 15.07-.006 15.319-.352 15.69-.193.208-.352.453-.352.546s-.336.43-.747.75-.875.722-1.032.894-.361.312-.456.312c-.302 0-1.281.547-1.281.716 0 .09-.198.163-.44.163s-.439.079-.439.176-.312.176-.693.176-.742.079-.802.176-.697.176-1.417.176c-.755 0-1.308.074-1.308.175s-.317.176-.703.176-.704-.079-.704-.176-.498-.175-1.143-.175-1.142-.077-1.142-.176-.277-.176-.616-.176-.615-.079-.615-.176-.158-.176-.352-.176-.351-.065-.351-.144-.354-.321-.786-.537c-.892-.446-2.565-2.008-2.963-2.767-.146-.279-.431-.624-.632-.766s-.367-.4-.367-.572-.079-.313-.176-.313-.175-.197-.175-.439-.079-.44-.176-.44-.176-.158-.176-.351-.117-.352-.264-.352c-.184 0-.263-.186-.263-.615 0-.339-.08-.616-.176-.616s-.176-.232-.176-.517-.079-.566-.176-.626-.176-.42-.176-.801-.079-.693-.176-.693-.175-.438-.175-.973c0-.702-.074-1-.264-1.073-.214-.083-.264-.495-.264-2.182 0-1.198-.075-2.127-.176-2.19s-.176-.613-.176-1.231.08-1.171.176-1.23c.104-.064.176-1.109.176-2.541 0-2 .047-2.451.264-2.534.19-.073.264-.37.264-1.063 0-.529.079-1.011.175-1.071s.176-.5.176-.977.079-.869.176-.869.176-.277.176-.616.079-.615.176-.615.176-.229.176-.509c0-.29.113-.552.263-.61s.264-.261.264-.458.079-.357.176-.357.176-.158.176-.352.079-.351.175-.351.176-.162.176-.36.198-.572.44-.833.439-.542.439-.625.223-.361.495-.617.547-.607.611-.778.257-.365.429-.429.509-.325.751-.579a3.77 3.77 0 0 1 1.011-.713c.314-.138.572-.35.572-.472s.197-.221.439-.221.44-.079.44-.176.237-.175.527-.175.528-.079.528-.176.494-.176 1.132-.176c.623 0 1.181-.079 1.241-.176s.381-.176.714-.176.605.079.605.176M154.374 71.805c0 4.901-.037 5.71-.264 5.797-.145.056-.264.182-.264.281 0 .363-2.704 3.172-3.054 3.172-.121 0-.39.158-.598.352s-.499.351-.648.351-.271.119-.271.264c0 .164-.166.264-.44.264-.242 0-.439.079-.439.176s-.312.175-.693.175-.742.079-.802.176-.697.176-1.417.176c-.755 0-1.308.074-1.308.176 0 .097-.193.176-.429.176s-.478-.079-.538-.176-.539-.176-1.066-.176-.956-.079-.956-.176-.238-.176-.528-.176-.527-.079-.527-.175-.105-.176-.232-.176-.604-.356-1.058-.791-.889-.792-.966-.792-.249-.277-.381-.615-.306-.615-.385-.615-.143-.277-.143-.616-.079-.615-.176-.615c-.108 0-.176-.85-.176-2.198s.068-2.198.176-2.198c.097 0 .176-.199.176-.442 0-.565.396-1.844.57-1.844.073 0 .133-.197.133-.439 0-.274.1-.44.264-.44.145 0 .264-.103.264-.23s.158-.401.351-.608.352-.426.352-.486c0-.178.489-.61.691-.61.103 0 .188-.079.188-.176s.104-.175.231-.175.4-.159.608-.352.502-.352.654-.352a.44.44 0 0 0 .378-.263c.057-.151.32-.264.61-.264.279 0 .508-.079.508-.176s.277-.176.616-.176.615-.079.615-.176c0-.104.645-.175 1.582-.175s1.583-.072 1.583-.176c0-.112 1.319-.176 3.604-.176h3.605v5.695m218.197.019c0 3.692-.062 5.714-.175 5.714-.097 0-.176.141-.176.313s-.158.427-.352.567-.352.354-.352.478-.063.225-.141.225c-.225 0-1.441 1.17-1.441 1.386 0 .108-.119.196-.264.196s-.263.079-.263.176-.104.176-.231.176-.4.158-.608.352-.502.351-.654.351a.44.44 0 0 0-.378.264c-.056.145-.251.264-.434.264s-.333.079-.333.176-.312.175-.693.175-.742.079-.801.176-.693.176-1.407.176-1.347.079-1.406.176-.302.176-.538.176-.429-.079-.429-.176-.431-.176-.957-.176-1.006-.079-1.065-.176-.302-.176-.538-.176-.43-.079-.43-.175-.102-.176-.227-.176-.52-.277-.879-.616-.698-.615-.753-.615c-.192 0-.538-.444-.788-1.011-.138-.314-.311-.571-.384-.571s-.133-.24-.133-.533c0-.312-.11-.575-.264-.635-.215-.082-.264-.505-.264-2.28 0-1.82.044-2.179.264-2.179.164 0 .264-.166.264-.442 0-.565.395-1.844.57-1.844.073 0 .133-.163.133-.364s.099-.466.22-.592c.454-.47 1.011-1.16 1.011-1.251 0-.213.882-.957 1.135-.957.149 0 .271-.08.271-.176s.119-.176.264-.176.264-.079.264-.176.161-.176.357-.176.403-.118.458-.263.286-.264.512-.264.459-.079.519-.176.381-.176.714-.176.605-.079.605-.176c0-.103.612-.175 1.484-.175.816 0 1.533-.08 1.593-.176.066-.108 1.467-.176 3.614-.176h3.506v5.714M239.56 121.88c-.29.101-.664.253-.832.338s-.425.156-.572.156-.266.084-.266.188c0 .31-.477.691-.866.691-.201 0-.365.076-.365.17s-.122.123-.272.066c-.219-.084-.25-.014-.158.352.122.488-.323 1.164-.538.817-.198-.322-.443.011-.332.452.066.261.032.428-.087.428s-.195.327-.195.781c0 .43-.079.83-.176.89s-.176.42-.176.801.079.693.176.693.176.356.176.792.079.791.176.791.176.133.176.295.283.555.63.872.59.641.543.718c-.194.314.383.817.667.581.223-.185.269-.175.269.062 0 .168.145.285.352.285.194 0 .352.079.352.176s.191.176.425.176.451.073.483.164 1.295.189 2.806.219c2.143.044 2.728.008 2.662-.164-.051-.133.062-.219.286-.219.204 0 .371-.085.371-.189s.217-.163.483-.132c.38.045.473-.01.432-.251-.028-.169.057-.308.191-.308.353 0 1.707-1.302 1.707-1.643 0-.16.079-.291.176-.291s.176-.356.176-.791c0-.45.082-.791.19-.791.127 0 .159-.396.098-1.187-.134-1.737-.304-2.681-.483-2.681-.086 0-.159-.099-.162-.22-.006-.281-1.313-1.714-1.564-1.714-.104 0-.189-.079-.189-.176s-.159-.176-.352-.176-.352-.117-.352-.264-.156-.263-.351-.263-.352-.071-.352-.157c0-.384-4.426-.662-5.363-.337m108.865-.092c-.358.357-.12 53.264.241 53.651s11.28.631 12.199.278c.252-.096.278-2.645.278-27.076V121.67h-6.301c-3.465 0-6.353.053-6.417.118m-117.83 2.517c-.072.117-3.048.179-8.627.179h-8.517v.517c0 .284-.08.566-.176.625s-.176.342-.176.626-.076.517-.168.517-.22.278-.284.618-.186.66-.271.713-.156.325-.156.603-.079.556-.176.616-.176.499-.176.977-.079.869-.176.869-.176.356-.176.791c0 .586-.068.791-.263.791-.176 0-.264.176-.264.528 0 .29-.079.527-.176.527s-.176.193-.176.429-.079.478-.175.538-.176.342-.176.626-.079.517-.176.517-.176.204-.176.452a1.16 1.16 0 0 1-.264.716 1.12 1.12 0 0 0-.263.691c0 .235-.08.427-.176.427s-.176.277-.176.615-.079.616-.176.616-.176.276-.176.615-.079.615-.176.615-.175.229-.175.509c0 .29-.114.552-.264.61s-.264.322-.264.634c0 .293-.079.533-.176.533s-.175.277-.175.615-.08.616-.176.616-.176.277-.176.615-.079.616-.176.616-.176.356-.176.791-.079.791-.176.791-.175.316-.175.703c0 .508-.074.704-.264.704-.184 0-.264.185-.264.609 0 .454-.064.586-.249.515-.198-.076-.229.05-.152.621.063.472.028.716-.103.716-.11 0-.199.238-.199.528s-.079.527-.176.527-.176.277-.176.615c0 .43-.079.616-.264.616s-.263.185-.263.615c0 .339-.079.616-.176.616s-.176.277-.176.615-.079.615-.176.615-.176.238-.176.528-.079.527-.175.527-.176.182-.176.405-.09.494-.2.604c-.278.278-.679-.148-.679-.722 0-.243-.079-.491-.176-.55s-.176-.333-.176-.607c0-.281-.115-.543-.264-.6-.19-.073-.263-.371-.263-1.074 0-.534-.08-.972-.176-.972s-.176-.238-.176-.528-.079-.527-.176-.527-.176-.277-.176-.615-.079-.616-.176-.616-.175-.277-.175-.615-.08-.616-.176-.616-.176-.192-.176-.427a1.12 1.12 0 0 0-.264-.69c-.145-.145-.264-.468-.264-.716s-.079-.452-.175-.452-.176-.198-.176-.44-.079-.439-.176-.439-.176-.233-.176-.518-.079-.566-.176-.625-.176-.342-.176-.626c0-.343-.089-.517-.263-.517-.184 0-.264-.186-.264-.616 0-.338-.079-.615-.176-.615s-.176-.278-.176-.618-.07-.755-.155-.923c-.484-.951-.585-1.292-.506-1.703.073-.384.034-.44-.241-.353-.296.094-.328-.001-.328-.952 0-.581-.08-1.105-.176-1.165s-.176-.337-.176-.616-.079-.555-.176-.615-.176-.302-.176-.538-.079-.429-.176-.429-.175-.24-.175-.533c0-.312-.11-.575-.264-.634s-.264-.32-.264-.61c0-.28-.079-.509-.176-.509s-.175-.277-.175-.615-.08-.616-.176-.616-.176-.232-.176-.517-.079-.566-.176-.625-.176-.344-.176-.632c0-.302-.111-.565-.263-.623s-.264-.32-.264-.61c0-.28-.079-.509-.176-.509s-.176-.277-.176-.615-.089-.616-.199-.616c-.131 0-.166-.244-.103-.716.077-.571.046-.697-.152-.621-.18.069-.249-.049-.249-.427v-.521h-8.528-8.527v25.488l.34 25.67c.366.196 11.896.266 12.393.075.333-.128.435-15.365.102-15.365-.112 0-.176-1.403-.176-3.858 0-2.382-.067-3.899-.176-3.967s-.175-1.513-.175-3.755c0-2.322-.068-3.714-.186-3.832-.102-.102-.16-.65-.129-1.222.041-.738.098-.935.199-.685a8.53 8.53 0 0 0 .304.657 1.89 1.89 0 0 1 .163.747c0 .243.079.442.176.442s.176.24.176.533c0 .312.109.575.264.634.145.056.263.286.263.512s.079.459.176.519.176.302.176.538.079.429.176.429.176.277.176.615.079.616.175.616.176.237.176.527c0 .352.088.528.264.528.184 0 .264.185.264.615 0 .339.079.615.176.615s.175.194.175.43.08.478.176.537.176.495.176.968.079.907.176.967.176.296.176.525.118.535.263.68a1.03 1.03 0 0 1 .264.628c0 .2.079.364.176.364s.176.277.176.616.079.615.176.615.175.237.175.528.08.527.176.527.176.198.176.44c0 .273.1.439.264.439.184 0 .264.186.264.616 0 .338.079.615.175.615s.176.199.176.442c0 .425.056.586.5 1.446a2.16 2.16 0 0 1 .204.835c0 .275.099.442.263.442.184 0 .264.185.264.615 0 .339.079.616.176.616s.176.237.176.527.079.527.175.527.176.277.176.616.079.615.176.615.175.139.174.308c-.004.554.59 2.857.737 2.857.079 0 .144.193.144.429s.079.478.176.538.176.302.176.538.079.429.176.429.175.199.175.442c0 .401.121.724.556 1.492.083.145.203.383.268.528.219.49.488.522 4.456.524 4.408.003 4.567-.039 4.567-1.23 0-.289.079-.525.175-.525s.176-.277.176-.615c0-.43.08-.616.264-.616.164 0 .264-.166.264-.439 0-.242.079-.44.175-.44s.176-.237.176-.527.079-.528.176-.528.176-.277.176-.615.079-.616.176-.616.176-.229.176-.508c0-.29.113-.553.263-.61.155-.059.264-.323.264-.634 0-.294.079-.533.176-.533s.176-.198.176-.44.079-.44.176-.44.175-.232.175-.517.079-.566.176-.625.176-.297.176-.528.079-.468.176-.527.176-.296.176-.524.086-.443.192-.478c.192-.064.427-.959.627-2.383.058-.411.174-.747.258-.747s.153-.238.153-.528.08-.527.176-.527.176-.282.176-.627c0-.538.048-.612.336-.521.302.096.326.036.24-.604-.062-.467-.027-.71.104-.71.11 0 .199-.158.199-.351s.079-.352.176-.352.176-.277.176-.615.079-.616.176-.616.175-.277.175-.615c0-.43.08-.615.264-.615.175 0 .264-.175.264-.518 0-.284.079-.566.176-.625s.176-.297.176-.528.079-.468.175-.527.176-.302.176-.538.079-.429.176-.429.176-.204.176-.452a1.16 1.16 0 0 1 .264-.716c.145-.145.263-.412.263-.593s.08-.377.176-.437.176-.337.176-.616.079-.555.176-.615.176-.46.176-.889.079-.781.176-.781.175-.238.175-.528c0-.351.088-.527.264-.527.184 0 .264-.186.264-.616 0-.338.079-.615.176-.615s.175.431.175.957-.079 1.005-.175 1.065c-.109.067-.176 1.526-.176 3.791 0 2.337-.064 3.682-.176 3.682s-.176 1.101-.176 2.953c0 2.129-.061 3.016-.22 3.174-.399.399-.432 16.476-.035 16.915.31.343 11.974.557 12.812.235.252-.096.278-2.511.278-25.547l.191-25.631c.128-.128.132-.228.013-.302-.099-.061-.229-.03-.29.068m39.127 12.569c-.334.122-.637.312-.674.421s-.186.2-.332.2-.489.158-.761.352-.609.308-.748.255c-.294-.113-1.588 1.102-1.489 1.397.036.106-.197.457-.519.78l-.584.587v-1.123c0-.618-.073-1.198-.163-1.29s-.189-.444-.22-.783l-.056-.615h-5.627-5.626v19.341 19.34h5.978 5.978l.045-12.037c.04-10.461.08-12.057.308-12.185.144-.081.263-.262.263-.402s.079-.255.175-.255.176-.089.176-.199c0-.279.688-.845 1.175-.968.224-.056.408-.172.408-.259s.158-.156.351-.156.352-.117.352-.264c0-.195.205-.264.791-.264.435 0 .791-.079.791-.176 0-.219 4.607-.24 4.844-.022.092.085.484.193.871.241l.703.088-.05-4.578c-.032-2.982.014-4.642.132-4.76.208-.208.251-2.045.047-2.045-.073 0-.212-.179-.307-.396-.21-.479-5.055-.654-6.232-.225m19.597-.083c-.06.097-.463.176-.895.176-.537 0-.819.084-.888.264-.065.171-.338.264-.775.264-.371 0-.723.079-.783.175s-.262.176-.45.176-.341.079-.341.176-.198.176-.44.176-.439.088-.439.196c0 .116-.185.161-.45.11-.347-.066-.427-.025-.349.178.082.213-.005.243-.449.154-.469-.094-.539-.064-.47.202.123.471-.356.849-.758.598-.231-.144-.355-.146-.44-.008-.065.105-.031.246.076.312.12.074-.008.24-.329.43-.288.17-.524.384-.524.475s-.079.166-.177.166c-.255 0-1.229.965-1.229 1.218 0 .319-.41.667-.68.578-.172-.058-.203.025-.114.306.137.43-.337.914-.743.759-.18-.07-.206.073-.116.635.078.488.051.724-.083.724-.109 0-.198.193-.198.429s-.079.478-.176.538-.176.618-.176 1.241c0 .638-.077 1.132-.176 1.132-.288 0-.199.833.103.949.153.058 3.04.106 6.417.106h6.14v-.967c0-.532.069-.967.154-.967s.251-.233.37-.519c.239-.578.87-1.063 1.382-1.063.185 0 .435-.119.555-.264.141-.169.53-.264 1.089-.264.539 0 .971.101 1.134.264a1.07 1.07 0 0 0 .658.264c.216 0 .563.158.771.352s.46.351.561.351.183.158.183.352.079.351.176.351.175.198.175.44.08.44.176.44c.104 0 .176.639.176 1.567v1.568l-3.033.095c-3.896.121-6.157.34-6.246.606-.039.117-.403.208-.835.208-.422 0-.815.079-.875.175s-.341.176-.626.176-.517.088-.517.195c0 .12-.267.168-.707.126-.522-.049-.685-.008-.621.158.052.136-.052.225-.265.225-.194 0-.397.118-.453.263s-.251.264-.434.264-.333.079-.333.176-.143.176-.319.176-.488.158-.695.351-.463.352-.567.352-.234.119-.29.264-.174.263-.264.263c-.222 0-1.382 1.175-1.382 1.401 0 .1-.084.182-.188.182-.267 0-.569.347-.894 1.029-.168.353-.33.51-.403.393-.067-.109-.193-.153-.281-.098s-.074.237.043.424c.162.259.143.385-.092.62-.162.162-.294.486-.294.721s-.08.427-.176.427-.176.356-.176.792-.079.791-.176.791c-.108 0-.176.846-.176 2.187 0 1.269.074 2.233.176 2.296s.176.381.176.714.079.605.176.605.176.192.176.427.099.531.219.659.339.47.484.76.422.702.615.915c.697.766.786.916.694 1.157-.113.295.358.73.617.57.101-.062.184-.029.184.073s.118.186.264.186.263.079.263.176.159.176.352.176.352.09.352.199c0 .257.896 1.031 1.194 1.031.125 0 .4.162.612.359s.584.407.827.467.5.195.569.301c.192.294 10.37.268 10.468-.028.04-.12.227-.219.416-.219s.388-.119.443-.264.222-.264.37-.264.397-.138.554-.307c.408-.438 1.059-.778 1.257-.655.281.173.596-.112.319-.291-.172-.11-.183-.19-.039-.285.11-.073.239-.29.288-.484.079-.319.089-.315.108.044.011.218.099.396.196.396s.176.277.176.615.079.616.176.616.175.239.175.531c0 .829.353.875 6.698.875h5.795l.171-.452c.179-.469.062-1.306-.183-1.306-.077 0-.099-.158-.048-.352s.005-.351-.104-.351-.197-.277-.197-.616-.079-.615-.176-.615-.175-.356-.175-.791-.078-.792-.173-.792c-.111 0-.2-3.808-.248-10.593-.079-11.198-.153-12.928-.562-13.085-.155-.06-.248-.353-.248-.78 0-.376-.079-.684-.176-.684s-.176-.198-.176-.44-.079-.44-.176-.44-.175-.153-.175-.341-.08-.39-.176-.45-.176-.262-.176-.45-.085-.341-.188-.341c-.225 0-.691-.44-.691-.652 0-.082-.154-.26-.342-.396s-.3-.316-.247-.402c.146-.236-.466-.825-.746-.717-.147.056-.248-.016-.248-.176 0-.149-.158-.321-.351-.382s-.352-.186-.352-.276-.085-.164-.188-.164c-.316 0-.696-.485-.592-.755.073-.191-.01-.234-.332-.173-.236.045-.483-.004-.548-.11s-.272-.193-.46-.193-.341-.079-.341-.175-.159-.176-.352-.176-.352-.079-.352-.176-.198-.176-.439-.176-.44-.079-.44-.176-.24-.175-.533-.175c-.311 0-.575-.11-.634-.264-.068-.179-.348-.264-.863-.264-.419 0-.811-.079-.871-.176-.067-.109-1.698-.176-4.308-.176s-4.24.067-4.307.176m36.219 0c-.059.097-.451.176-.87.176-.515 0-.795.085-.863.264-.06.154-.323.264-.635.264-.293 0-.533.079-.533.175s-.159.176-.354.176c-.364 0-1.057.326-1.248.587-.059.081-.296.12-.527.088-.284-.04-.404.019-.369.181.037.174-.07.211-.385.131-.446-.112-.783.131-.459.331.115.071.089.203-.072.364-.295.294-.805.336-.805.066 0-.102-.085-.134-.188-.07s-.15.214-.104.335-.067.327-.252.46-.336.324-.336.424-.247.292-.55.426-.589.39-.636.57-.155.327-.241.327-.155.119-.155.264-.085.263-.188.263c-.28 0-.691.463-.691.779 0 .152-.079.276-.176.276s-.176.129-.176.286c0 .225-.052.242-.248.079-.156-.13-.287-.142-.354-.034-.059.095-.026.222.072.283s.179.234.179.385c0 .217-.053.232-.248.069-.329-.272-.5.014-.354.595.07.278.038.447-.083.447-.107 0-.194.158-.194.352s-.08.352-.176.352-.176.197-.176.439-.079.44-.176.44-.176.188-.176.418-.118.516-.264.637-.263.446-.263.724-.079.506-.176.506-.176.312-.176.693-.079.742-.176.802-.176.642-.176 1.294-.086 1.272-.192 1.377c-.314.315.036 7.509.383 7.87.089.091.161.507.161.923s.079.756.176.756.176.24.176.533c0 .311.109.575.263.634.163.062.264.33.264.698 0 .328.079.596.176.596s.176.158.176.352.089.351.198.351c.127 0 .159.195.088.547-.09.453-.061.527.174.437.225-.086.261-.024.178.307-.127.505.037.71.357.445.181-.15.236-.13.236.089 0 .157.087.285.195.285.122 0 .151.172.078.462-.088.353-.058.44.13.368.135-.052.357.066.492.263a5.99 5.99 0 0 0 .467.587c.121.126.22.276.22.334 0 .214 1.742 1.855 1.97 1.855.131 0 .352.158.492.351s.37.352.513.352c.202 0 .213.047.049.211-.352.352-.237.526.275.413.365-.08.548-.018.742.25.141.196.437.357.657.357s.401.079.401.175.148.176.33.176.429.119.549.264.4.264.622.264.437.099.477.219c.057.171 1.482.22 6.335.22 4.776 0 6.315-.052 6.482-.22.121-.12.405-.219.63-.219s.456-.119.511-.264.291-.264.522-.264.421-.079.421-.176.158-.175.352-.175.351-.08.351-.176.119-.176.264-.176.264-.088.264-.196c0-.116.159-.155.389-.095.517.135 1.1-.364.819-.703-.145-.176-.143-.237.008-.237.113 0 .375-.158.583-.351s.481-.352.608-.352.23-.078.23-.173.277-.458.616-.806.615-.71.615-.802.198-.367.44-.609.439-.512.439-.602.128-.113.284-.053c.237.091.263.019.161-.445-.077-.355-.053-.554.069-.554.104 0 .189-.158.189-.352s.08-.351.176-.351.176-.164.176-.365a1.03 1.03 0 0 1 .264-.628c.145-.145.264-.535.264-.866s.079-.603.175-.603c.371 0 .216-3.483-.164-3.686-.51-.273-10.954-.246-11.229.029-.116.116-.211.505-.211.865s-.115.878-.256 1.151-.358.755-.483 1.07-.286.571-.359.571-.133.085-.133.188c0 .307-.475.691-.856.691-.195 0-.403.079-.463.176-.159.258-3.836.222-4.431-.044-.649-.29-1.81-1.437-1.81-1.788 0-.153-.079-.278-.176-.278s-.176-.233-.176-.517-.071-.561-.157-.614c-.413-.255-.78-11.177-.376-11.177.1 0 .181-.356.181-.791s.08-.791.176-.791.176-.158.176-.352.079-.351.176-.351.176-.198.176-.44.079-.439.176-.439.175-.159.175-.352.118-.352.264-.352.264-.084.264-.188c0-.333.489-.691.944-.691.243 0 .491-.079.55-.176.281-.453 3.95-.086 3.955.396.001.072.199.132.441.132.273 0 .44.099.44.264 0 .145.079.263.175.263s.176.159.176.352.079.352.176.352.176.153.176.341.079.39.176.45.175.336.175.613.129.633.286.79c.21.21.264.504.206 1.111l-.08.826h5.997 5.996l-.068-1.758c-.038-.967-.139-1.891-.225-2.054s-.155-.62-.155-1.017c0-.478-.089-.754-.264-.821-.151-.058-.264-.32-.264-.61 0-.28-.089-.509-.198-.509-.127 0-.159-.194-.088-.546.09-.449.06-.527-.168-.44s-.256.013-.156-.447.076-.536-.161-.445c-.156.06-.284.036-.284-.053s-.198-.36-.439-.602-.44-.562-.44-.712-.079-.271-.176-.271-.176-.119-.176-.264-.059-.264-.132-.264c-.224 0-1.098-.821-1.098-1.031 0-.11-.077-.199-.171-.199s-.123-.123-.065-.273c.083-.218.014-.25-.349-.159-.534.134-1.309-.517-1.209-1.017.05-.255-.03-.288-.48-.198-.346.069-.54.037-.54-.09 0-.109-.158-.198-.351-.198s-.352-.079-.352-.175-.119-.176-.264-.176-.263-.079-.263-.176-.238-.176-.528-.176-.527-.079-.527-.176-.277-.175-.616-.175c-.43 0-.615-.08-.615-.264 0-.195-.204-.264-.781-.264-.429 0-.83-.079-.889-.176-.068-.108-1.581-.176-3.956-.176s-3.889.068-3.957.176m53.103-.006c-.062.1-.427.182-.811.182-.458 0-.733.091-.799.264-.063.162-.33.264-.698.264-.328 0-.597.079-.597.175s-.237.176-.527.176-.528.065-.528.143-.277.252-.615.385-.615.315-.615.406-.246.116-.546.056c-.456-.091-.528-.062-.437.176.107.28-.321.754-.688.76-.096.002-.059-.071.083-.161.389-.246.091-.417-.331-.19-.405.216-.492.533-.147.538.12.002-.058.178-.396.393s-.787.549-.997.744l-.835.769c-.25.227-.454.524-.454.659s-.079.245-.176.245-.175.122-.175.272c0 .161-.126.25-.308.219-.172-.028-.288.046-.264.169s-.055.2-.176.175c-.135-.027-.198.108-.165.351.04.285-.016.367-.202.295-.367-.14-.541.241-.263.578.184.223.188.3.015.358-.121.041-.22.195-.22.342 0 .152-.102.229-.236.177-.172-.066-.213.032-.151.356.057.298-.011.5-.203.608-.159.089-.289.356-.289.592s-.079.431-.176.431-.176.198-.176.44-.079.439-.175.439-.176.317-.176.704-.079.703-.176.703-.178.257-.181.571-.122.725-.264.913c-.179.236-.258.789-.258 1.792 0 .798-.079 1.499-.176 1.559s-.176.936-.176 2.022.076 1.96.176 2.022.176.7.176 1.423c0 1.005.062 1.337.263 1.415.179.068.264.349.264.873 0 .425.079.773.176.773s.176.199.176.442a2.09 2.09 0 0 0 .176.791l.351.698c.097.192.176.469.176.616s.119.266.264.266c.297 0 .359.448.085.617-.098.061-.132.185-.076.277s.177.121.268.065c.293-.182.723.416.594.825-.096.301-.062.357.164.27.182-.07.284-.016.284.149 0 .142.079.258.175.258s.176.159.176.352.085.352.189.352c.238 0 .521.307.898.972.163.287.431.55.597.584.505.104 1.139.851 1.009 1.19-.088.23-.047.277.169.194.204-.078.256-.034.184.154-.08.209-.005.24.355.15.549-.138 1.094.278.778.594-.141.142-.105.228.133.319.196.076.354.043.396-.082.086-.259.567-.275.567-.019 0 .28.463.691.779.691.152 0 .276.079.276.176s.198.176.439.176.44.079.44.175.112.176.249.176.474.112.748.248c1.477.734 1.313.719 8.026.719 5.05 0 6.525-.049 6.581-.22.041-.12.259-.219.486-.219s.531-.119.676-.264a1.03 1.03 0 0 1 .628-.264c.2 0 .364-.079.364-.176s.158-.175.352-.175.352-.08.352-.176.158-.176.351-.176.352-.079.352-.176.109-.176.242-.176.344-.122.468-.272c.165-.198.26-.216.354-.065a.24.24 0 0 0 .331.08c.152-.094.146-.196-.024-.403-.202-.246-.163-.265.339-.166.727.144 1.499-.454 1.499-1.162 0-.26.072-.473.161-.473.222 0 1.025-.82 1.025-1.047 0-.101.109-.184.243-.184.399 0 .685-.488.565-.965-.072-.286-.234-.442-.459-.442-.193 0-.349-.118-.349-.263s-.059-.264-.132-.264-.238-.237-.367-.528-.345-.527-.482-.527-.249-.087-.249-.193-.244-.421-.541-.699-.497-.576-.444-.662c.118-.19-.493-.778-.648-.623-.137.137-.653-.366-.653-.636 0-.254-.442-.704-.691-.704-.103 0-.188-.084-.188-.188 0-.273-.394-.624-.87-.776-.333-.105-.393-.077-.309.144.066.171.026.245-.105.195-.286-.108-1.231.728-1.138 1.008s-.635 1.024-1.004 1.024a.44.44 0 0 0-.379.264c-.055.145-.244.264-.419.264s-.346.083-.38.186-.398.191-.809.196-.789.08-.842.166c-.266.431-7.108.038-7.108-.408 0-.077-.156-.14-.346-.14-.24 0-.314-.084-.242-.273.108-.281-.441-.819-.683-.669-.219.135-.934-.692-1.283-1.483-.18-.407-.391-.74-.469-.74s-.142-.198-.142-.44-.079-.439-.175-.439-.176-.159-.176-.352c0-.348.117-.352 11.353-.352h11.353l-.056-5.881c-.043-4.408-.112-5.937-.277-6.101-.121-.121-.219-.396-.219-.612s-.119-.51-.264-.655a1.03 1.03 0 0 1-.264-.628c0-.201-.079-.364-.176-.364s-.176-.159-.176-.352-.079-.352-.175-.352-.176-.198-.176-.439-.089-.44-.197-.44c-.115 0-.161-.184-.111-.444.071-.37.03-.426-.243-.34-.225.072-.328.018-.328-.171 0-.152-.079-.276-.176-.276s-.176-.121-.176-.27c0-.328-3.232-3.598-3.556-3.598-.126 0-.377-.198-.559-.439s-.46-.44-.618-.44-.402-.158-.542-.352-.434-.351-.654-.351-.401-.079-.401-.176-.193-.176-.429-.176-.478-.079-.538-.176-.295-.175-.523-.175-.445-.092-.482-.203c-.164-.492-9.778-.976-10.068-.507m-142.936.458c-.325.325-.427 37.719-.104 38.23.257.407 11.807.492 12.419.09l.42-.274v-18.808c0-17.541-.021-18.83-.303-19.16-.417-.487-11.951-.559-12.432-.078m148.91 9.394c.06.097.302.176.538.176s.429.079.429.176.119.176.264.176c.505 0 .983.667.853 1.189-.108.434-.091.457.173.24.19-.157.293-.172.293-.044 0 .108.119.197.264.197.164 0 .263.166.263.44 0 .242.079.439.176.439.103 0 .176.586.176 1.407v1.407h-5.363-5.362v-.704c0-.387.079-.703.176-.703s.175-.229.175-.509c0-.29.114-.552.264-.61.145-.055.264-.255.264-.443s.077-.369.17-.401.193-.257.22-.499.188-.567.357-.723.308-.384.308-.506c0-.151.164-.188.519-.117.41.082.499.049.421-.154-.067-.176.018-.258.272-.258.203 0 .37-.079.37-.176 0-.106.729-.175 1.836-.175 1.034 0 1.883.076 1.944.175m-87.648 15.212c0 3.2-.13 3.596-1.363 4.139-.314.138-.571.303-.571.366s-.198.163-.44.224-.439.188-.439.282-.352.173-.781.173-.83.079-.889.176-.342.176-.626.176-.517-.08-.517-.176-.228-.176-.506-.176-.605-.119-.725-.264-.292-.264-.381-.264c-.715 0-1.026-.849-1.026-2.805 0-1.177.07-1.942.176-1.942.097 0 .176-.118.176-.263s.316-.581.703-.968.822-.703.967-.703.264-.079.264-.176.198-.175.44-.175.439-.08.439-.176c0-.109.967-.176 2.55-.176h2.549v2.728M0 167.363v7.934h68.22 68.22v-7.726c0-4.249-.06-7.761-.132-7.804s-30.772-.137-68.22-.208L0 159.429v7.934m163.604-7.725l-1.582.098-.046 7.78-.046 7.781h3.87 3.87v-7.912-7.912l-2.241.033a98.23 98.23 0 0 0-3.825.132m-22.476.128c-.146.146-.156 14.872-.01 15.253.095.248.972.278 8.088.278h7.981v-7.824-7.825h-7.971c-4.384 0-8.023.053-8.088.118" fill="#fcfcfc"/><path d="M112.527 117.451c0 .104-.64.175-1.569.175-1.161 0-1.639.069-1.834.264-.176.177-.617.264-1.331.264-.595 0-1.068.078-1.068.176s-.391.175-.868.175-.918.08-.978.176-.46.176-.889.176-.781.079-.781.176-.277.176-.616.176c-.429 0-.615.079-.615.264s-.194.263-.693.263c-.381 0-.742.079-.801.176s-.302.176-.538.176-.43.079-.43.176-.232.176-.517.176-.566.079-.625.175-.263.176-.45.176-.342.119-.342.264c0 .175-.174.264-.517.264-.284 0-.566.079-.625.176s-.263.175-.45.175-.342.079-.342.176-.197.176-.439.176-.44.079-.44.176-.158.176-.351.176-.352.117-.352.263c0 .164-.166.264-.44.264-.241 0-.439.079-.439.176s-.158.176-.352.176-.351.079-.351.176-.139.178-.308.181c-.38.007-.923.403-.923.673 0 .11-.158.201-.352.201s-.352.079-.352.175-.18.176-.4.176-.515.158-.654.352-.384.351-.542.351-.437.198-.618.44-.47.44-.64.44-.31.079-.31.175-.102.176-.225.176-.339.158-.479.352-.357.352-.484.352-.276.118-.331.263-.175.264-.264.264-.427.257-.749.571-.81.73-1.084.924c-.732.517-3.066 2.852-3.066 3.067 0 .102-.082.185-.184.185-.228 0-.799.578-1.477 1.496-.285.386-.661.83-.835.986s-.317.356-.317.442-.198.306-.439.488-.44.437-.44.569-.079.239-.176.239-.176.101-.176.225-.158.339-.351.478-.352.359-.352.487-.198.417-.44.641-.439.5-.439.614-.158.377-.352.585-.351.512-.351.677a.46.46 0 0 1-.264.401c-.145.055-.264.222-.264.37s-.064.269-.143.269-.252.277-.384.616-.306.615-.385.615-.143.149-.143.33a.81.81 0 0 1-.264.549c-.145.121-.263.328-.263.461s-.079.242-.176.242-.176.198-.176.44-.079.44-.176.44-.176.158-.176.351-.079.352-.175.352-.176.188-.176.418-.119.516-.264.637-.264.367-.264.549-.079.33-.176.33-.175.193-.175.429-.079.478-.176.538-.176.302-.176.538-.079.429-.176.429-.176.277-.176.615-.079.616-.175.616-.176.277-.176.615c0 .43-.08.616-.264.616-.195 0-.264.205-.264.791 0 .435-.079.791-.176.791s-.175.356-.175.791-.08.791-.176.791-.176.436-.176.967-.079.967-.176.967-.176.469-.176 1.055v1.054l34.33.045 34.33.044.045 7.78.046 7.781h2.328 2.328v-7.78-7.781l8.044-.045 8.044-.046v7.826 7.826h2.372 2.371l.046-7.781.046-7.78 1.582-.088 1.583-.088.058-.504c.031-.278-.028-.591-.132-.695s-.19-.604-.19-1.111-.079-.97-.176-1.03-.176-.456-.176-.879-.079-.82-.175-.879-.176-.376-.176-.702-.119-.711-.264-.856-.264-.507-.264-.804-.079-.54-.176-.54-.175-.237-.175-.527-.079-.528-.176-.528-.176-.276-.176-.615-.079-.615-.176-.615-.176-.161-.176-.357-.118-.403-.263-.459c-.151-.058-.264-.32-.264-.61 0-.279-.079-.508-.176-.508s-.176-.198-.176-.44-.079-.439-.176-.439-.175-.159-.175-.352-.08-.352-.176-.352-.176-.16-.176-.357-.119-.403-.264-.458-.264-.251-.264-.434-.079-.333-.175-.333-.176-.198-.176-.44-.079-.439-.176-.439-.176-.159-.176-.352-.079-.352-.176-.352-.175-.115-.175-.255-.198-.454-.44-.696-.44-.514-.44-.606c0-.354-.779-1.607-.999-1.607-.127 0-.231-.181-.231-.401s-.159-.515-.352-.654-.352-.365-.352-.502-.277-.509-.615-.828-.615-.627-.615-.683c0-.196-.793-1.324-.931-1.326-.154-.002-1.003-.811-1.003-.955 0-.3-3.839-4.146-4.139-4.146-.158 0-.609-.48-.609-.649 0-.081-.211-.304-.468-.496l-.691-.569a.83.83 0 0 0-.499-.22c-.151 0-.276-.085-.276-.188 0-.244-.447-.691-.691-.691-.103 0-.188-.079-.188-.176s-.104-.176-.231-.176-.4-.158-.608-.351-.423-.352-.48-.352c-.098 0-.345-.187-.872-.659-.135-.121-.392-.22-.571-.22s-.439-.158-.579-.352-.385-.351-.547-.351-.34-.119-.395-.264-.262-.264-.459-.264-.357-.064-.357-.143-.277-.252-.615-.384-.616-.306-.616-.385-.149-.143-.332-.143-.379-.119-.434-.264-.262-.263-.459-.263-.357-.079-.357-.176-.193-.176-.429-.176-.478-.079-.538-.176-.302-.176-.538-.176-.429-.079-.429-.175-.15-.176-.333-.176-.372-.102-.42-.227-.491-.337-.986-.471-.898-.31-.898-.389-.277-.144-.616-.144-.615-.079-.615-.176-.269-.176-.597-.176c-.368 0-.635-.101-.698-.263-.066-.175-.342-.264-.81-.264-.389 0-.708-.079-.708-.176s-.356-.176-.792-.176-.791-.079-.791-.176-.435-.176-.967-.176-.967-.079-.967-.175-.492-.176-1.124-.176c-.837 0-1.15-.068-1.225-.264-.08-.207-.439-.264-1.679-.264-.868 0-1.626-.079-1.686-.175-.067-.109-1.555-.176-3.879-.176l-3.77.176" fill="#c41b5c"/></svg>